<?xml version="1.0" encoding="UTF-8"?>
<svg id="Layer_1" data-name="Layer 1" xmlns="http://www.w3.org/2000/svg" viewBox="0 0 348.95 290.91">
  <defs>
    <style>
      .cls-1 {
        opacity: .46;
      }

      .cls-1, .cls-2, .cls-3, .cls-4, .cls-5, .cls-6, .cls-7, .cls-8, .cls-9, .cls-10, .cls-11, .cls-12, .cls-13, .cls-14, .cls-15, .cls-16, .cls-17, .cls-18, .cls-19, .cls-20, .cls-21, .cls-22, .cls-23, .cls-24, .cls-25, .cls-26, .cls-27, .cls-28, .cls-29, .cls-30, .cls-31, .cls-32, .cls-33 {
        fill: none;
        stroke: #fff;
        stroke-miterlimit: 10;
      }

      .cls-2 {
        opacity: .19;
      }

      .cls-3 {
        opacity: .15;
      }

      .cls-4 {
        opacity: .21;
      }

      .cls-5 {
        opacity: .14;
      }

      .cls-7 {
        opacity: .32;
      }

      .cls-8 {
        opacity: .21;
      }

      .cls-9 {
        opacity: .13;
      }

      .cls-10 {
        opacity: .85;
      }

      .cls-11 {
        opacity: .17;
      }

      .cls-12 {
        opacity: .66;
      }

      .cls-13 {
        opacity: .2;
      }

      .cls-14 {
        opacity: .12;
      }

      .cls-15 {
        opacity: .9;
      }

      .cls-16 {
        opacity: .19;
      }

      .cls-17 {
        opacity: .95;
      }

      .cls-18 {
        opacity: .61;
      }

      .cls-19 {
        opacity: .71;
      }

      .cls-20 {
        opacity: .22;
      }

      .cls-21 {
        opacity: .12;
      }

      .cls-22 {
        opacity: .27;
      }

      .cls-23 {
        opacity: .56;
      }

      .cls-24 {
        opacity: .14;
      }

      .cls-25 {
        opacity: .81;
      }

      .cls-26 {
        opacity: .42;
      }

      .cls-27 {
        opacity: .37;
      }

      .cls-28 {
        opacity: .17;
      }

      .cls-29 {
        opacity: .51;
      }

      .cls-30 {
        opacity: .18;
      }

      .cls-31 {
        opacity: .11;
      }

      .cls-32 {
        opacity: .76;
      }

      .cls-33 {
        opacity: .16;
      }
    </style>
  </defs>
  <path class="cls-31" d="M396.84,163.73s2.39-99.72-103.29-112.16C187.87,39.14,162.84,2.6,140.15-37.65"/>
  <path class="cls-21" d="M397.75,171.3s-8.93-96.66-109.64-115.73C187.39,36.51,167.53.53,145.9-40.3"/>
  <path class="cls-14" d="M398.65,178.87s-20.24-93.6-115.99-119.29C186.91,33.88,172.23-1.53,151.66-42.96"/>
  <path class="cls-9" d="M399.56,186.44s-31.56-90.53-122.34-122.86C186.44,31.25,176.92-3.6,157.41-45.61"/>
  <path class="cls-5" d="M400.47,194s-42.87-87.47-128.69-126.43C185.96,28.61,181.61-5.66,163.17-48.27"/>
  <path class="cls-24" d="M401.37,201.57s-54.19-84.41-135.04-130C185.49,25.98,186.31-7.73,168.92-50.92"/>
  <path class="cls-3" d="M402.28,209.14s-65.5-81.34-141.38-133.57C185.01,23.35,191-9.79,174.68-53.58"/>
  <path class="cls-33" d="M403.19,216.71s-76.82-78.28-147.73-137.14C184.54,20.72,195.69-11.86,180.43-56.24"/>
  <path class="cls-11" d="M404.09,224.28s-88.13-75.22-154.08-140.7C184.06,18.09,200.38-13.92,186.19-58.89"/>
  <path class="cls-28" d="M405,231.85s-99.44-72.15-160.43-144.27C183.59,15.46,205.08-15.99,191.94-61.55"/>
  <path class="cls-30" d="M405.9,239.42s-110.76-69.09-166.78-147.84c-56.02-78.75-29.36-109.63-41.43-155.78"/>
  <path class="cls-16" d="M406.81,246.99s-122.07-66.03-173.13-151.41c-51.05-85.38-19.22-115.7-30.23-162.44"/>
  <path class="cls-2" d="M407.72,254.56s-133.39-62.96-179.47-154.98c-46.08-92.01-9.09-121.77-19.04-169.09"/>
  <path class="cls-13" d="M408.62,262.13s-144.7-59.9-185.82-158.55c-41.12-98.65,1.05-127.83-7.84-175.75"/>
  <path class="cls-4" d="M409.53,269.7s-156.02-56.84-192.17-162.11c-36.15-105.28,11.18-133.9,3.36-182.4"/>
  <path class="cls-8" d="M410.44,277.26s-167.33-53.77-198.52-165.68,21.32-139.96,14.55-189.06"/>
  <path class="cls-20" d="M411.34,284.83s-178.65-50.71-204.87-169.25c-26.22-118.54,31.45-146.03,25.75-195.72"/>
  <path class="cls-22" d="M412.98,282.11s-42.5-19.68-97.25-49.89c-47.39-26.15-95.97-62.86-111.35-116.23-5.69-19.49-8.89-36.91-9.86-53.1-4.58-76.4,23.81-100,19.38-138.62"/>
  <path class="cls-7" d="M414.62,279.39s-34.53-25.07-92.86-54.27c-49.59-24.82-100.83-57.61-119.48-108.73-6.84-18.75-11.25-35.96-12.89-52.83-7.54-77.55,10.32-98.84,6.19-134.89"/>
  <path class="cls-27" d="M416.26,276.67s-26.52-30.49-88.46-58.64c-51.75-23.52-105.81-52.34-127.61-101.23-8.02-17.99-13.6-35-15.92-52.57-10.41-78.7-3.17-97.68-7.01-131.15"/>
  <path class="cls-26" d="M417.9,273.95s-18.49-35.95-84.07-63.02c-53.9-22.25-110.8-47.08-135.74-93.73-9.22-17.24-15.93-34.04-18.95-52.3-13.22-79.84-16.66-96.53-20.2-127.42"/>
  <path class="cls-1" d="M419.54,271.23s-10.44-41.44-79.67-67.39c-56.03-21-115.81-41.81-143.87-86.24-10.42-16.49-18.25-33.09-21.98-52.03-15.96-80.99-30.15-95.37-33.4-123.69"/>
  <path class="cls-29" d="M421.18,268.51s-2.38-46.96-75.27-71.76c-58.15-19.79-120.84-36.54-152-78.74-11.62-15.74-20.56-32.13-25.01-51.76C150.24-15.89,125.25-27.96,122.29-53.71"/>
  <path class="cls-23" d="M422.82,265.79s5.7-52.51-70.88-76.14c-60.25-18.59-125.88-31.26-160.13-71.24-12.84-14.98-22.85-31.18-28.04-51.5-21.29-83.31-57.13-93.06-59.79-116.23"/>
  <path class="cls-18" d="M424.46,263.08s13.78-58.09-66.48-80.51c-62.36-17.42-130.94-25.97-168.26-63.74-14.05-14.22-25.14-30.23-31.07-51.23C134.75-16.88,88.01-24.31,85.65-44.9"/>
  <path class="cls-12" d="M426.1,260.36s21.86-63.69-62.09-84.89c-64.46-16.27-136.01-20.67-176.4-56.24-15.28-13.45-27.41-29.28-34.11-50.96C127.07-17.4,69.4-22.48,67.33-40.5"/>
  <path class="cls-19" d="M427.74,257.64s29.95-69.32-57.69-89.26c-66.56-15.14-141.09-15.35-184.53-48.74-16.5-12.68-29.68-28.34-37.14-50.69C119.41-17.93,50.78-20.65,49.01-36.09"/>
  <path class="cls-32" d="M429.38,254.92s38.04-74.98-53.29-93.63c-68.65-14.02-146.17-10.02-192.66-41.24-17.73-11.91-31.94-27.4-40.17-50.43C111.78-18.48,32.16-18.82,30.68-31.69"/>
  <path class="cls-25" d="M431.02,252.2s46.13-80.65-48.9-98.01c-70.75-12.92-151.26-4.67-200.79-33.74-18.96-11.13-34.19-26.47-43.2-50.16C104.17-19.05,13.54-16.99,12.36-27.29"/>
  <path class="cls-10" d="M432.66,249.48s54.21-86.35-44.5-102.38c-72.86-11.83-156.34.69-208.92-26.24-20.18-10.34-36.44-25.54-46.23-49.89C96.58-19.63-5.08-15.16-5.96-22.88"/>
  <path class="cls-15" d="M434.3,246.76s62.29-92.06-40.11-106.75c-74.96-10.75-161.42,6.06-217.05-18.74-21.41-9.55-38.68-24.61-49.26-49.63C89.01-20.22-23.69-13.33-24.28-18.48"/>
  <path class="cls-17" d="M435.94,244.04s70.4-97.96-35.71-111.13c-77.05-9.81-166.52,11.52-225.18-11.24-22.65-8.72-40.91-23.69-52.29-49.36C81.45-20.83-42.31-11.5-42.61-14.08"/>
  <path class="cls-6" d="M437.57,241.32s78.45-103.54-31.32-115.5c-109.77-11.96-244.92,41.6-288.63-52.84C73.91-21.46-60.93-9.67-60.93-9.67"/>
</svg>