<?xml version="1.0" encoding="UTF-8"?>
<svg id="Layer_1" data-name="Layer 1" xmlns="http://www.w3.org/2000/svg" xmlns:xlink="http://www.w3.org/1999/xlink" viewBox="0 0 89.9 83.63">
  <defs>
    <style>
      .cls-1 {
        fill: url(#linear-gradient-2);
      }

      .cls-2 {
        fill: url(#linear-gradient-3);
      }

      .cls-3 {
        fill: none;
        stroke: url(#linear-gradient);
        stroke-linecap: round;
        stroke-miterlimit: 10;
        stroke-width: 5px;
      }
    </style>
    <linearGradient id="linear-gradient" x1="6.17" y1="41.82" x2="83.73" y2="41.82" gradientUnits="userSpaceOnUse">
      <stop offset="0" stop-color="#001437"/>
      <stop offset="1" stop-color="#bfc4cd"/>
    </linearGradient>
    <linearGradient id="linear-gradient-2" x1="350.36" y1="-849.07" x2="368.26" y2="-866.97" gradientTransform="translate(395.59 907.36) rotate(-45)" xlink:href="#linear-gradient"/>
    <linearGradient id="linear-gradient-3" x1="2223.01" y1="1023.57" x2="2240.9" y2="1005.68" gradientTransform="translate(2338.63 907.36) rotate(-135) scale(1 -1)" xlink:href="#linear-gradient"/>
  </defs>
  <path class="cls-3" d="M47.06,11.07h-23.87c-3.85,0-7.54,1.53-10.26,4.25-2.72,2.72-4.25,6.41-4.25,10.26v36.28c0,3.85,1.53,7.54,4.25,10.26,2.72,2.72,6.41,4.25,10.26,4.25h43.53c3.85,0,7.54-1.53,10.26-4.25,2.72-2.72,4.25-6.41,4.25-10.26v-22.02M60.7,27.79l20.53-20.53M64.83,7.26h16.4v16.43"/>
  <g>
    <path class="cls-1" d="M31.15,34.77c1.2-1.2,3.23-1.12,4.53.19l18.89,18.89c1.3,1.3,1.39,3.33.19,4.53s-3.23,1.12-4.53-.19l-18.89-18.89c-1.3-1.3-1.39-3.33-.19-4.53Z"/>
    <path class="cls-2" d="M54.57,39.31l-18.89,18.89c-1.3,1.3-3.33,1.39-4.53.19s-1.12-3.23.19-4.53l18.89-18.89c1.3-1.3,3.33-1.39,4.53-.19,1.2,1.2,1.12,3.23-.19,4.53Z"/>
  </g>
</svg>