<?xml version="1.0" encoding="UTF-8"?>
<svg id="Layer_1" data-name="Layer 1" xmlns="http://www.w3.org/2000/svg" xmlns:xlink="http://www.w3.org/1999/xlink" viewBox="0 0 89.9 83.63">
  <defs>
    <style>
      .cls-1 {
        fill: none;
        stroke: url(#linear-gradient-2);
        stroke-linecap: round;
        stroke-miterlimit: 10;
        stroke-width: 5px;
      }

      .cls-2 {
        fill: url(#linear-gradient);
      }
    </style>
    <linearGradient id="linear-gradient" x1="34.65" y1="43.01" x2="56.49" y2="43.01" gradientUnits="userSpaceOnUse">
      <stop offset="0" stop-color="#001437"/>
      <stop offset="1" stop-color="#bfc4cd"/>
    </linearGradient>
    <linearGradient id="linear-gradient-2" x1="6.17" y1="41.82" x2="83.73" y2="41.82" xlink:href="#linear-gradient"/>
  </defs>
  <path class="cls-2" d="M48.11,58.23v3.99c0,.64-.26,1.26-.71,1.72-.46.46-1.07.71-1.72.71s-1.26-.26-1.72-.71c-.46-.46-.71-1.07-.71-1.72v-4.1c-1.61-.27-3.15-.85-4.53-1.72-1.38-.87-2.57-2.01-3.49-3.35-.37-.41-.58-.94-.58-1.49,0-.31.06-.63.19-.91.12-.29.3-.55.53-.77.23-.22.5-.39.79-.5.29-.11.61-.16.92-.14.31,0,.62.07.9.2.28.13.53.32.73.56,1.16,1.52,2.74,2.66,4.53,3.3v-9.21c-4.83-1.92-7.26-4.72-7.26-8.38.07-1.96.84-3.83,2.17-5.28,1.33-1.44,3.13-2.36,5.08-2.6v-4.03c0-.64.26-1.26.71-1.72.46-.46,1.07-.71,1.72-.71s1.26.26,1.72.71c.46.46.71,1.07.71,1.72v3.99c1.36.21,2.66.69,3.82,1.41,1.17.72,2.17,1.67,2.96,2.8.32.42.51.92.54,1.45,0,.31-.04.62-.16.91-.11.29-.28.55-.5.78-.22.22-.48.4-.76.52-.29.12-.59.18-.91.18-.32,0-.64-.08-.94-.22-.29-.14-.56-.34-.77-.58-.87-1.08-2.01-1.91-3.3-2.4v8.16l.91.36c4.61,1.78,7.47,4.39,7.47,8.56-.06,2.21-.96,4.32-2.52,5.9-1.56,1.58-3.65,2.5-5.86,2.59ZM43.25,38.71v-5.88c-.59.21-1.09.6-1.44,1.12-.35.51-.53,1.13-.52,1.75.03.62.23,1.21.57,1.73.35.51.82.92,1.39,1.18v.11ZM51.23,49.85c0-1.78-1.23-2.83-3.12-3.63v7.26c.89-.13,1.7-.58,2.28-1.27.58-.69.88-1.57.84-2.47v.11Z"/>
  <path class="cls-1" d="M47.06,11.07h-23.87c-3.85,0-7.54,1.53-10.26,4.25-2.72,2.72-4.25,6.41-4.25,10.26v36.28c0,3.85,1.53,7.54,4.25,10.26,2.72,2.72,6.41,4.25,10.26,4.25h43.53c3.85,0,7.54-1.53,10.26-4.25,2.72-2.72,4.25-6.41,4.25-10.26v-22.02M60.7,27.79l20.53-20.53M64.83,7.26h16.4v16.43"/>
</svg>