<?xml version="1.0" encoding="UTF-8"?>
<svg id="Layer_1" data-name="Layer 1" xmlns="http://www.w3.org/2000/svg" xmlns:xlink="http://www.w3.org/1999/xlink" viewBox="0 0 89.9 83.63">
  <defs>
    <style>
      .cls-1 {
        fill: url(#linear-gradient-2);
      }

      .cls-2 {
        fill: url(#linear-gradient-3);
      }

      .cls-3 {
        fill: none;
        stroke: url(#linear-gradient);
        stroke-linecap: round;
        stroke-miterlimit: 10;
        stroke-width: 5px;
      }
    </style>
    <linearGradient id="linear-gradient" x1="6.17" y1="41.82" x2="83.73" y2="41.82" gradientUnits="userSpaceOnUse">
      <stop offset="0" stop-color="#001437"/>
      <stop offset="1" stop-color="#bfc4cd"/>
    </linearGradient>
    <linearGradient id="linear-gradient-2" x1="36.61" y1="44.09" x2="52.77" y2="27.93" xlink:href="#linear-gradient"/>
    <linearGradient id="linear-gradient-3" x1="41.88" y1="62.69" x2="47.5" y2="57.07" xlink:href="#linear-gradient"/>
  </defs>
  <path class="cls-3" d="M47.06,11.07h-23.87c-3.85,0-7.54,1.53-10.26,4.25-2.72,2.72-4.25,6.41-4.25,10.26v36.28c0,3.85,1.53,7.54,4.25,10.26,2.72,2.72,6.41,4.25,10.26,4.25h43.53c3.85,0,7.54-1.53,10.26-4.25,2.72-2.72,4.25-6.41,4.25-10.26v-22.02M60.7,27.79l20.53-20.53M64.83,7.26h16.4v16.43"/>
  <path class="cls-1" d="M44.69,21.09c1.65,0,2.98,1.34,2.98,2.98v23.87c0,1.65-1.34,2.98-2.98,2.98s-2.98-1.34-2.98-2.98v-23.87c0-1.65,1.34-2.98,2.98-2.98Z"/>
  <path class="cls-2" d="M48.67,59.88c0,2.2-1.78,3.98-3.98,3.98s-3.98-1.78-3.98-3.98,1.78-3.98,3.98-3.98,3.98,1.78,3.98,3.98Z"/>
</svg>