<?xml version="1.0" encoding="UTF-8"?>
<svg id="Layer_1" data-name="Layer 1" xmlns="http://www.w3.org/2000/svg" xmlns:xlink="http://www.w3.org/1999/xlink" viewBox="0 0 522.29 233.14">
  <defs>
    <style>
      .cls-1 {
        fill: url(#linear-gradient);
        stroke: url(#linear-gradient-2);
      }

      .cls-1, .cls-2 {
        stroke-miterlimit: 10;
        stroke-width: .5px;
      }

      .cls-3 {
        fill: #fff;
      }

      .cls-2 {
        fill: url(#linear-gradient-3);
        stroke: url(#linear-gradient-4);
      }
    </style>
    <linearGradient id="linear-gradient" x1="322.63" y1="187.64" x2="427.06" y2="83.2" gradientUnits="userSpaceOnUse">
      <stop offset="0" stop-color="#939598"/>
      <stop offset=".35" stop-color="#414042"/>
      <stop offset=".59" stop-color="#fff"/>
      <stop offset="1" stop-color="#939598"/>
    </linearGradient>
    <linearGradient id="linear-gradient-2" x1="321.1" y1="142.51" x2="424.46" y2="142.51" gradientUnits="userSpaceOnUse">
      <stop offset=".14" stop-color="#939598"/>
      <stop offset=".4" stop-color="#fff"/>
      <stop offset=".67" stop-color="#939598"/>
      <stop offset="1" stop-color="#414042"/>
    </linearGradient>
    <linearGradient id="linear-gradient-3" x1="266.15" y1="121.91" x2="359.33" y2="28.73" xlink:href="#linear-gradient"/>
    <linearGradient id="linear-gradient-4" x1="266.74" y1="77.5" x2="366.86" y2="77.5" xlink:href="#linear-gradient-2"/>
  </defs>
  <path class="cls-3" d="M30.37,95.66v-41.75h22.53v41.75c0,9.91,4.81,13.37,11.57,13.37s11.41-3.45,11.41-13.37v-41.75h22.53v41.75c0,9.91,4.8,13.37,11.41,13.37s11.57-3.45,11.57-13.37v-41.75h22.53v41.75c0,23.88-13.82,34.39-31.84,34.39-10.66,0-19.37-4.06-24.93-11.86-5.56,7.81-14.42,11.86-24.93,11.86-18.02,0-31.84-10.51-31.84-34.39Z"/>
  <path class="cls-3" d="M155.62,91.01c0-22.53,16.52-39.05,39.95-39.05s39.95,16.52,39.95,39.05-16.52,39.05-39.95,39.05-39.95-16.52-39.95-39.05ZM212.69,91.01c0-10.66-6.91-18.02-17.12-18.02s-17.12,7.36-17.12,18.02,6.91,18.02,17.12,18.02,17.12-7.36,17.12-18.02Z"/>
  <path class="cls-3" d="M249.63,21.47h22.53v106.63h-22.53V21.47Z"/>
  <path class="cls-1" d="M417.13,73.27c-12.09,4.94-26,4.55-37.97-1.58,6.97,7.73,11.35,17.56,11.63,27.9.26,6.51-1.08,14.94-6.28,23.57-1.36,2.56-2.97,5.04-4.86,7.38-14.12,17.48-38.51,21.76-57.5,11.21,10.49,12.53,13.35,29.7,7.85,44.79l.15,8.61,25.83,18.51.04-37.25c7.55.16,15.19-1.07,23.66-4.8,8.32-3.57,16.13-8.5,23.5-16.49,16.22-17.58,22.18-37.83,20.83-55.94-.63-8.64-2.97-17.44-6.89-25.91Z"/>
  <path class="cls-2" d="M272.22,127.97c12.01-4.17,25.53-3.24,37.06,3.17-13.7-16.35-14.39-40.61-.48-57.83,8.95-11.08,22.02-16.85,35.23-16.92,6.72-.36,14.41,1.13,21.74,4.93-9.13-10.29-12.91-23.96-10.92-37.07-4.94-.85-9.77-1.15-14.38-.96-17.82.72-37.97,8.76-52.72,24.75-12.39,13.43-21.77,32.58-20.67,56.09.41,8.55,2.06,16.42,5.14,23.84Z"/>
  <path class="cls-3" d="M412.46,91.01c0-22.53,16.52-39.05,39.95-39.05s39.5,16.52,39.5,39.05v6.31h-56.02c1.8,8.71,8.41,12.62,16.52,12.62,6.46,0,11.26-1.35,14.12-5.41h23.28c-4.8,15.32-18.92,25.53-37.39,25.53-23.43,0-39.95-16.52-39.95-39.05ZM468.78,83.05c-2.55-7.66-8.56-10.96-16.37-10.96s-13.82,3.46-16.07,10.96h32.44Z"/>
  <g>
    <path class="cls-3" d="M146.72,178.22c0-9.5,7.54-16.49,18.22-16.49,8.74,0,15.44,4.75,17.54,11.73h-5.65c-1.83-4.32-6.18-7.18-11.88-7.18-7.59,0-12.83,5.04-12.83,11.93s5.24,11.93,12.83,11.93c5.71,0,10.05-2.86,11.88-7.18h5.65c-2.09,6.98-8.8,11.73-17.54,11.73-10.68,0-18.22-6.98-18.22-16.49Z"/>
    <path class="cls-3" d="M187.77,162.37h16.49c6.33,0,9.74,3.39,9.74,8.15,0,3.3-1.73,5.82-4.71,7.08v.1c3.93,1.07,6.28,4.02,6.28,7.9,0,4.9-3.46,8.49-9.95,8.49h-17.85v-31.71ZM203.68,175.65c3.25,0,5.03-1.84,5.03-4.36s-1.47-4.36-5.13-4.36h-10.47v8.73h10.58ZM204.73,189.52c3.77,0,5.34-2.04,5.34-4.56,0-2.76-1.94-4.75-5.24-4.75h-11.73v9.31h11.62Z"/>
    <path class="cls-3" d="M219.6,175.41c0-8.39,5.24-13.67,14.82-13.67s14.97,5.29,14.97,13.67v18.67h-5.34v-10.04h-19.27v10.04h-5.18v-18.67ZM244.05,179.48v-4.07c0-5.72-3.25-9.12-9.63-9.12s-9.63,3.39-9.63,9.12v4.07h19.27Z"/>
    <path class="cls-3" d="M254.83,173.37c0-7.85,5.13-11.64,11.73-11.64,4.5,0,8.01,1.84,9.89,5.29,1.88-3.44,5.39-5.29,9.89-5.29,6.6,0,11.73,3.78,11.73,11.64v20.7h-5.34v-20.7c0-4.85-2.93-7.08-6.81-7.08s-6.81,2.33-6.81,7.08v20.7h-5.34v-20.7c0-4.75-2.88-7.08-6.81-7.08s-6.81,2.23-6.81,7.08v20.7h-5.34v-20.7Z"/>
  </g>
</svg>